<svg width="268" height="533" viewBox="0 0 268 533" fill="none" xmlns="http://www.w3.org/2000/svg">
<path d="M1.92439 -0.00146484L-1.3189 3.22178L5.14764 3.24182L1.92439 -0.00146484Z" fill="white"/>
<path d="M5.14764 3.24182L-1.3189 3.22178L-11.4464 13.2867L15.2125 13.3693L5.14764 3.24182Z" fill="white"/>
<path d="M34.1565 32.431L-30.5081 32.2306L-40.6356 42.2955L44.2214 42.5585L34.1565 32.431Z" fill="white"/>
<path d="M63.1653 61.6203L-59.728 61.2699L-69.8555 71.3348L73.2302 71.7478L63.1653 61.6203Z" fill="white"/>
<path d="M92.2045 90.8401L-88.9172 90.2787L-99.0447 100.344L102.269 100.968L92.2045 90.8401Z" fill="white"/>
<path d="M121.213 120.029L-118.106 119.288L-128.234 129.352L131.278 130.157L121.213 120.029Z" fill="white"/>
<path d="M150.253 149.249L-147.326 148.327L-157.454 158.392L160.287 159.346L150.253 149.249Z" fill="white"/>
<path d="M179.261 178.438L-176.516 177.336L-186.643 187.401L189.326 188.566L179.261 178.438Z" fill="white"/>
<path d="M208.27 207.628L-205.735 206.375L-215.832 216.409L218.335 217.755L208.27 207.628Z" fill="white"/>
<path d="M237.31 236.848L-234.925 235.384L-245.052 245.449L247.344 246.944L237.31 236.848Z" fill="white"/>
<path d="M267.2 266.924L266.318 266.037L-264.114 264.393L-265.001 265.274L-255.818 274.515L257.96 276.107L267.2 266.924Z" fill="white"/>
<path d="M238.898 295.051L-236.874 293.576L-226.809 303.704L228.771 305.116L238.898 295.051Z" fill="white"/>
<path d="M209.679 324.09L-207.865 322.765L-197.8 332.892L199.552 334.155L209.679 324.09Z" fill="white"/>
<path d="M180.49 353.099L-178.825 351.985L-168.761 362.112L170.362 363.164L180.49 353.099Z" fill="white"/>
<path d="M151.3 382.107L-149.817 381.174L-139.752 391.301L141.173 392.172L151.3 382.107Z" fill="white"/>
<path d="M122.08 411.148L-120.809 410.364L-110.744 420.492L111.952 421.212L122.08 411.148Z" fill="white"/>
<path d="M92.8901 440.156L-91.7698 439.584L-81.7049 449.711L82.7626 450.221L92.8901 440.156Z" fill="white"/>
<path d="M63.7023 469.165L-62.7596 468.773L-52.6947 478.901L53.5748 479.23L63.7023 469.165Z" fill="white"/>
<path d="M34.4817 498.204L-33.7515 497.962L-23.6866 508.089L24.3542 508.269L34.4817 498.204Z" fill="white"/>
<path d="M5.29219 527.213L-4.7125 527.182L0.274385 532.2L5.29219 527.213Z" fill="white"/>
</svg>
