<svg width="414" height="1071" viewBox="0 0 414 1071" fill="none" xmlns="http://www.w3.org/2000/svg">
<path fill-rule="evenodd" clip-rule="evenodd" d="M4.84515 461.025C9.68118 426.01 17.9759 391.404 29.7114 357.762L391.396 18.6328C425.724 9.08495 460.792 3.03277 496.045 0.458301L4.84515 461.025ZM155.411 912.115C169.312 926.122 183.808 939.204 198.821 951.36L972.892 225.563C961.727 209.8 949.603 194.492 936.519 179.72L155.411 912.115ZM306.095 1018.83C287.696 1010.12 269.7 1000.31 252.209 989.407L1007.43 281.287C1017.19 299.444 1025.82 318.033 1033.32 336.954L306.095 1018.83ZM372.267 1044.89C394.406 1051.94 416.924 1057.53 439.665 1061.64L1067.46 473.001C1064.82 450.042 1060.69 427.212 1055.07 404.665L372.267 1044.89ZM616.229 1064.14C585.864 1068.75 555.197 1070.74 524.588 1070.12L1070.46 558.293C1069.11 588.879 1065.15 619.355 1058.6 649.36L616.229 1064.14ZM752.637 1024.35C806.134 1000.61 856.622 967.637 901.729 925.344C946.836 883.05 982.99 834.787 1010.12 782.926L752.637 1024.35ZM891.117 134.184L112.89 863.879C100.67 848.236 89.4455 832.084 79.2143 815.506L845.01 97.4681C860.896 108.744 876.292 120.984 891.117 134.184ZM47.8695 756.791L788.432 62.4126C769.832 52.4427 750.756 43.6439 731.315 36.0198L25.2042 698.094C31.5624 717.986 39.1163 737.588 47.8695 756.791ZM7.64947 626.449C3.47368 602.315 0.962167 577.962 0.109055 553.571L588.704 1.68313C612.989 4.10292 637.131 8.17529 660.946 13.8943L7.64947 626.449Z" fill="white"/>
</svg>
