<svg width="1920" height="1080" viewBox="0 0 1920 1080" fill="none" xmlns="http://www.w3.org/2000/svg">
<circle cx="-74" cy="540" r="457" fill="#2B54FF"/>
<circle cx="38" cy="38" r="38" transform="matrix(1 0 0 -1 172 224)" fill="#4CAF50"/>
<path fill-rule="evenodd" clip-rule="evenodd" d="M1347.54 -116.909C1352.38 -151.923 1360.67 -186.529 1372.41 -220.172L1734.09 -559.301C1768.42 -568.849 1803.49 -574.901 1838.74 -577.475L1347.54 -116.909ZM1498.11 334.181C1512.01 348.188 1526.5 361.271 1541.52 373.427L2315.59 -352.371C2304.42 -368.134 2292.3 -383.441 2279.21 -398.214L1498.11 334.181ZM1648.79 440.895C1630.39 432.189 1612.4 422.381 1594.9 411.474L2350.12 -296.646C2359.88 -278.49 2368.51 -259.9 2376.02 -240.979L1648.79 440.895ZM1714.96 466.956C1737.1 474.011 1759.62 479.597 1782.36 483.709L2410.15 -104.933C2407.51 -127.892 2403.39 -150.722 2397.77 -173.269L1714.96 466.956ZM1958.92 486.21C1928.56 490.819 1897.89 492.807 1867.28 492.188L2413.15 -19.6405C2411.8 10.9449 2407.85 41.421 2401.3 71.4261L1958.92 486.21ZM2095.33 446.415C2148.83 422.68 2199.32 389.704 2244.42 347.41C2289.53 305.116 2325.69 256.853 2352.81 204.993L2095.33 446.415ZM2233.81 -443.749L1455.58 285.945C1443.37 270.302 1432.14 254.15 1421.91 237.573L2187.71 -480.465C2203.59 -469.189 2218.99 -456.95 2233.81 -443.749ZM1390.56 178.857L2131.13 -515.521C2112.53 -525.491 2093.45 -534.29 2074.01 -541.914L1367.9 120.161C1374.26 140.052 1381.81 159.654 1390.56 178.857ZM1350.34 48.5152C1346.17 24.3818 1343.66 0.0282732 1342.8 -24.3625L1931.4 -576.25C1955.68 -573.831 1979.83 -569.758 2003.64 -564.039L1350.34 48.5152Z" fill="#2B54FF"/>
<path d="M1547.37 745.539L1827.91 824.295L1619.43 1027.88L1547.37 745.539Z" fill="#2B54FF" fill-opacity="0.5"/>
<path d="M1652.5 839.606L1933.05 918.362L1724.57 1121.95L1652.5 839.606Z" fill="#2B54FF" fill-opacity="0.5"/>
<path d="M1761.6 932.431L2042.15 1011.19L1833.67 1214.77L1761.6 932.431Z" fill="#2B54FF" fill-opacity="0.5"/>
</svg>
