<svg width="82" height="78" viewBox="0 0 82 78" fill="none" xmlns="http://www.w3.org/2000/svg">
<path d="M81.0335 48.1172C80.7722 49.6925 80.5689 51.2895 80.235 52.8503C79.4655 56.4945 78.0354 59.8773 76.0391 63.0206C75.4438 63.9498 74.5582 64.2184 73.7597 63.732C72.9466 63.2311 72.7797 62.2874 73.3822 61.3219C75.6398 57.714 77.1062 53.8303 77.5853 49.5981C78.6379 40.3715 76.0391 32.2991 69.542 25.6495C55.5605 11.3414 31.3652 15.5663 22.9516 33.7074C15.097 50.6579 25.0858 70.3888 43.4229 74.0548C50.8129 75.5284 57.7819 74.2726 64.2354 70.338C65.4986 69.5685 66.3624 69.6121 66.9359 70.4905C67.5094 71.3761 67.1537 72.2617 65.8978 73.0385C49.2304 83.4193 26.966 76.2326 19.547 58.0552C19.2638 57.3583 18.9227 57.1768 18.2185 57.1914C15.0244 57.2276 11.8375 57.2059 8.64343 57.2059C8.35306 57.2059 8.06268 57.2059 7.77231 57.1768C6.93023 57.0825 6.35674 56.4654 6.33496 55.6669C6.31318 54.8393 6.90845 54.1787 7.77957 54.0771C8.04091 54.0481 8.3095 54.0553 8.57084 54.0481C11.4455 54.0481 14.3202 54.0481 17.1949 54.0481H18.0588C17.7249 51.9937 17.4127 50.0264 17.0788 47.9647C16.2657 47.9647 15.4019 47.9647 14.538 47.9647C13.0861 47.9647 11.6343 47.9793 10.1897 47.9575C9.23144 47.943 8.55632 47.2678 8.54906 46.3895C8.54906 45.5111 9.21692 44.8214 10.1824 44.8142C12.186 44.7924 14.1896 44.8069 16.1931 44.8069C16.4763 44.8069 16.7666 44.8069 17.028 44.8069C17.2893 42.7816 17.5361 40.8288 17.8047 38.7381H16.9481C12.0408 38.7381 7.14075 38.7381 2.23344 38.7381C1.87047 38.7381 1.48573 38.7236 1.13728 38.6365C0.418603 38.4623 -0.0532538 37.7581 0.00482089 37.0322C0.0628956 36.2917 0.614605 35.7037 1.36232 35.6093C1.64543 35.573 1.94306 35.5803 2.23344 35.5803C7.51097 35.5803 12.7813 35.573 18.0588 35.5948C18.625 35.5948 18.8646 35.4061 19.0751 34.8907C19.8155 33.0976 20.6359 31.3409 21.4416 29.5115C21.2311 29.497 20.9843 29.4752 20.7375 29.4752C18.0443 29.4752 15.3583 29.4752 12.6651 29.4752C11.5181 29.4752 10.7849 28.8509 10.7849 27.9072C10.7849 26.9635 11.5326 26.3174 12.6651 26.3174C16.0915 26.3174 19.5252 26.3029 22.9516 26.3247C23.5251 26.3247 23.8953 26.1867 24.28 25.7149C28.7953 20.2268 34.4867 16.5826 41.3976 14.8694C41.5282 14.8404 41.6516 14.7968 41.775 14.7533C41.8476 14.7315 41.913 14.6879 42.0146 14.6444V10.688C40.0909 10.071 38.7334 8.87321 38.1672 6.91319C37.2017 3.53034 39.6408 0.147489 43.2124 0.0603766C47.0889 -0.0339948 50.9654 -0.00495744 54.8418 0.0603766C57.5568 0.103933 59.604 1.99136 60.054 4.68457C60.4606 7.09467 59.0232 9.52655 56.6131 10.4485C56.1848 10.6155 56.0033 10.8042 56.0179 11.2833C56.0542 12.3867 56.0324 13.4901 56.0324 14.5282C57.9343 15.1888 59.829 15.6825 61.5858 16.481C72.5183 21.4319 78.8993 29.8817 80.7504 41.7435C80.8521 42.3896 80.9392 43.0429 81.0335 43.689C81.0335 45.1626 81.0335 46.6435 81.0335 48.1172ZM49.0126 7.63186C50.8565 7.63186 52.7003 7.63912 54.5442 7.63186C55.9525 7.62461 56.9398 6.71719 56.9543 5.46132C56.9761 4.18368 55.967 3.21819 54.5224 3.21093C50.8637 3.19641 47.1978 3.19641 43.5391 3.21093C42.0872 3.21819 41.1217 4.16916 41.1435 5.4831C41.1653 6.76074 42.1162 7.62461 43.5608 7.63186C45.3757 7.64638 47.1978 7.63186 49.0126 7.63186ZM52.8237 10.8405H45.2813V14.0056H52.8237V10.8405Z" fill="white"/>
<path d="M49.1287 21.3228C62.769 21.4099 73.6943 32.4368 73.6 46.0263C73.5056 59.5359 62.4278 70.4975 48.9545 70.4176C35.365 70.3305 24.418 59.231 24.5269 45.656C24.6357 32.1755 35.6917 21.2429 49.1287 21.33V21.3228ZM49.0779 24.4878C37.2815 24.4733 27.6992 34.0411 27.6919 45.8448C27.6847 57.6267 37.2742 67.2381 49.0561 67.2526C60.8308 67.2598 70.4422 57.6557 70.4422 45.8738C70.4422 34.0629 60.8961 24.5023 49.0852 24.4878H49.0779Z" fill="white"/>
<path d="M70.5511 65.7787C71.4149 65.7787 72.1263 66.4684 72.1336 67.3177C72.1481 68.1888 71.4004 68.922 70.5148 68.9003C69.6509 68.8785 68.983 68.1888 68.9903 67.3177C68.9976 66.4466 69.6799 65.7715 70.5511 65.7715V65.7787Z" fill="white"/>
<path d="M44.1271 45.6122C44.2069 45.2565 44.2795 44.6975 44.4683 44.1894C44.628 43.7683 44.5336 43.5288 44.2287 43.2384C43.2632 42.302 42.3122 41.351 41.3685 40.3928C40.5337 39.5507 40.4538 38.6578 41.1362 37.9609C41.8113 37.264 42.7841 37.3438 43.6334 38.1859C44.5699 39.1151 45.5063 40.0371 46.421 40.988C46.7259 41.3074 46.98 41.4091 47.4373 41.2348C48.5044 40.8211 49.6151 40.8211 50.6822 41.2348C51.1396 41.4091 51.3864 41.3002 51.6985 40.988C53.9998 38.665 56.3155 36.3566 58.6312 34.0481C58.7982 33.8811 58.9579 33.6997 59.1394 33.5545C59.8145 33.0028 60.7074 33.0318 61.2954 33.6125C61.8761 34.186 61.9342 35.1152 61.368 35.7613C60.8816 36.313 60.3372 36.8212 59.8145 37.3438C57.898 39.2676 55.9888 41.1985 54.0433 43.0932C53.6368 43.4925 53.5352 43.7901 53.7166 44.3709C54.3482 46.3672 53.8618 48.153 52.2938 49.5323C50.7548 50.8898 48.9473 51.1801 47.0598 50.3235C45.1506 49.4597 44.2287 47.8917 44.1198 45.6122H44.1271ZM47.3284 45.8082C47.3067 46.7737 48.0834 47.594 49.0416 47.6085C49.9926 47.6303 50.8057 46.8318 50.8129 45.8663C50.8129 44.9226 50.0797 44.1531 49.1433 44.1241C48.156 44.095 47.3575 44.8355 47.3357 45.8082H47.3284Z" fill="white"/>
<path d="M50.6532 29.6709C50.6532 29.9322 50.6677 30.1935 50.6532 30.4549C50.5951 31.326 49.9781 31.943 49.1505 31.9721C48.3302 32.0011 47.6188 31.4276 47.5317 30.571C47.4736 29.9975 47.4736 29.4168 47.5172 28.8433C47.5898 27.9431 48.2867 27.3406 49.1433 27.3697C50.0071 27.3987 50.6097 28.023 50.6532 28.9595C50.6677 29.1918 50.6532 29.4313 50.6532 29.6709Z" fill="white"/>
<path d="M65.259 44.3058C65.5203 44.3058 65.7817 44.2913 66.043 44.3058C66.8923 44.3638 67.5311 45.0027 67.5674 45.8157C67.5965 46.6215 67.0012 47.3402 66.1519 47.4345C65.5784 47.4926 64.9976 47.4926 64.4242 47.4418C63.5167 47.3692 62.936 46.6796 62.965 45.8085C62.9941 44.9446 63.6184 44.3421 64.5548 44.3058C64.7871 44.2985 65.0267 44.3058 65.2662 44.3058H65.259Z" fill="white"/>
<path d="M47.4736 62.0478C47.4736 61.7864 47.4591 61.5178 47.4736 61.2565C47.5317 60.3926 48.1705 59.7611 48.9981 59.732C49.8184 59.7102 50.5225 60.3055 50.6096 61.1694C50.6605 61.692 50.6532 62.222 50.6242 62.7519C50.5734 63.7029 49.8765 64.378 49.0126 64.3562C48.1415 64.3344 47.5099 63.6448 47.4736 62.6793C47.4736 62.4688 47.4736 62.2583 47.4736 62.0478Z" fill="white"/>
<path d="M32.7299 47.4491C32.454 47.4201 32.0838 47.4201 31.7281 47.333C31.0022 47.1587 30.5231 46.4691 30.5666 45.7432C30.6102 45.0027 31.1546 44.3784 31.9023 44.3058C32.5049 44.2477 33.1146 44.2477 33.7172 44.2913C34.5665 44.3494 35.14 44.9592 35.169 45.7722C35.1981 46.5998 34.6899 47.2386 33.8551 47.3838C33.5212 47.4419 33.1727 47.4273 32.7372 47.4564L32.7299 47.4491Z" fill="white"/>
</svg>
