<svg width="78" height="78" viewBox="0 0 78 78" fill="none" xmlns="http://www.w3.org/2000/svg">
<path d="M36.3077 77.1785C34.8219 76.9781 33.3223 76.826 31.8435 76.5703C16.5505 73.9581 4.06316 62.0099 0.911964 46.8413C-1.54818 34.9966 0.981069 24.2438 8.3546 14.6451C8.43061 14.5484 8.49972 14.4447 8.56882 14.3411C8.57573 14.3272 8.56883 14.2927 8.555 14.1752C7.58062 14.1752 6.58551 14.1752 5.5973 14.1752C5.34852 14.1752 5.08592 14.189 4.85096 14.1199C4.18755 13.9333 3.84203 13.4842 3.88349 12.7862C3.91804 12.1435 4.37414 11.639 5.04446 11.6252C7.25582 11.5976 9.46028 11.5976 11.6716 11.6252C12.3627 11.639 12.8119 12.0882 12.8188 12.7862C12.8464 14.9976 12.8464 17.202 12.8188 19.4134C12.8119 20.1044 12.2521 20.5674 11.5818 20.5744C10.8977 20.5744 10.3517 20.1044 10.2965 19.3581C10.2481 18.7085 10.2757 18.052 10.2757 17.4024C10.2757 17.1398 10.2757 16.8703 10.2757 16.6077C10.1928 16.5732 10.1099 16.5386 10.0339 16.5041C9.0111 18.1211 7.90541 19.6898 6.98631 21.3622C-0.981522 35.9503 2.05911 53.9867 14.3391 65.2094C26.7919 76.591 45.5954 77.752 59.3543 67.9875C59.5823 67.8285 59.7965 67.6558 60.0315 67.5106C60.7018 67.096 61.4136 67.2135 61.8282 67.794C62.2429 68.3745 62.153 69.1346 61.5104 69.5838C60.2319 70.4683 58.9535 71.3667 57.6059 72.1338C52.6303 74.974 47.2816 76.6187 41.5597 77.0403C41.3662 77.0541 41.1727 77.1163 40.9792 77.1577H36.3077V77.1785Z" fill="white"/>
<path d="M77.135 40.8642C76.9484 42.2739 76.7964 43.6905 76.5615 45.1003C75.4765 51.5685 72.8574 57.3527 68.8148 62.5079C68.7111 62.6392 68.6144 62.7774 68.4347 63.0331C69.6578 63.0331 70.7497 63.0193 71.8416 63.0331C72.6432 63.0469 73.1477 63.4616 73.2375 64.125C73.3411 64.892 72.8574 65.5623 72.0765 65.5762C69.8652 65.6107 67.6607 65.6038 65.4493 65.5762C64.7583 65.5693 64.3091 65.0648 64.3022 64.3323C64.2814 62.1969 64.2814 60.0616 64.3022 57.9331C64.3091 57.1384 64.8412 56.6271 65.5599 56.6271C66.2786 56.6271 66.8038 57.1246 66.8522 57.9193C66.8936 58.6449 66.8591 59.3774 66.866 60.103C66.866 60.2413 66.8867 60.3864 66.9074 60.6766C67.1286 60.414 67.2737 60.2551 67.3981 60.0892C77.8745 46.1853 76.755 26.4212 64.7099 13.8647C57.2051 6.04202 47.9588 2.31724 37.1438 2.64203C30.0467 2.85626 23.5785 5.116 17.7667 9.22086C17.5387 9.3798 17.3244 9.55257 17.0895 9.69078C16.4261 10.0916 15.7005 9.96028 15.2927 9.37289C14.885 8.78549 14.9818 8.02533 15.6452 7.58997C17.3452 6.47738 19.0175 5.3095 20.8073 4.36276C42.0365 -6.85302 68.794 4.50788 75.518 27.5614C76.2989 30.2427 76.831 32.9654 77.0106 35.7573C77.0245 35.9508 77.0936 36.1443 77.135 36.3378V40.8572V40.8642Z" fill="white"/>
<path d="M21.2496 15.1777C21.92 15.3919 22.4313 15.5163 22.9151 15.7098C23.9171 16.1106 24.9053 16.5322 25.8866 16.9814C26.2805 17.161 26.5915 17.1472 26.9992 16.9606C28.485 16.2972 30.0053 15.7167 31.491 15.0672C31.7744 14.9428 32.0715 14.6802 32.1959 14.4106C32.6727 13.3326 33.0874 12.2269 33.5158 11.1351C33.9857 9.95337 34.8357 9.20702 36.1073 9.15174C37.7312 9.07572 39.369 9.07572 40.993 9.15174C42.2576 9.20702 43.1215 9.93954 43.5914 11.1212C44.0129 12.1924 44.4206 13.2773 44.9044 14.3208C45.0495 14.6318 45.3743 14.9358 45.6922 15.081C47.1779 15.7444 48.6775 16.3663 50.1909 16.9606C50.4742 17.0712 50.8682 17.1058 51.1446 17.0021C52.2641 16.5736 53.3628 16.0623 54.4685 15.5993C55.671 15.0948 56.7974 15.233 57.751 16.1383C58.8774 17.2094 59.9762 18.3082 61.0474 19.4346C61.925 20.3675 62.0563 21.4801 61.5725 22.648C61.1165 23.7606 60.5982 24.8525 60.1697 25.972C60.0591 26.2691 60.0868 26.6907 60.2112 26.9947C60.7917 28.4874 61.4136 29.9662 62.0632 31.4313C62.2083 31.7492 62.4847 32.1016 62.7957 32.2398C63.8599 32.7374 64.9656 33.1451 66.0575 33.5874C67.2115 34.0504 67.9302 34.9004 67.9924 36.1304C68.0684 37.782 68.0684 39.4406 67.9924 41.0922C67.9371 42.3292 67.2046 43.1723 66.0506 43.6284C64.9587 44.0637 63.853 44.4783 62.7819 44.9621C62.4916 45.0934 62.2083 45.4113 62.077 45.7153C61.4205 47.2011 60.7986 48.7076 60.2043 50.221C60.0868 50.5251 60.0661 50.9466 60.1766 51.2437C60.5844 52.3218 61.0543 53.3722 61.5173 54.4295C62.0632 55.6872 61.925 56.8482 60.9782 57.8433C59.9209 58.949 58.8429 60.0339 57.7303 61.0843C56.7974 61.962 55.6917 62.1071 54.5169 61.6233C53.4043 61.1672 52.3125 60.649 51.193 60.2274C50.8958 60.1169 50.4742 60.1376 50.1702 60.2551C48.6568 60.8425 47.1503 61.4713 45.6645 62.1278C45.3605 62.2591 45.0426 62.5355 44.9113 62.8327C44.4275 63.9038 44.006 65.0095 43.5706 66.1014C43.1007 67.29 42.2231 68.0018 40.9585 68.0571C39.3552 68.1262 37.7451 68.1262 36.1487 68.0571C34.8496 68.0018 33.9719 67.2485 33.4951 66.0392C33.0736 64.968 32.6727 63.8831 32.2028 62.8327C32.0715 62.5424 31.7536 62.2522 31.4565 62.1209C29.9707 61.4644 28.4642 60.8425 26.9508 60.2551C26.6468 60.1376 26.2252 60.103 25.9281 60.2136C24.8293 60.6282 23.7582 61.1258 22.6732 61.5819C21.4431 62.1002 20.3029 61.9551 19.3285 61.029C18.2228 59.9717 17.1379 58.8937 16.0875 57.7811C15.1891 56.8274 15.0509 55.701 15.5623 54.4986C16.0391 53.3653 16.5436 52.2458 16.9928 51.1055C17.0826 50.8706 17.0619 50.525 16.9651 50.2832C16.3432 48.7283 15.7074 47.1735 15.0302 45.6462C14.9058 45.3629 14.6363 45.0727 14.3599 44.9552C13.3302 44.4991 12.2729 44.0983 11.2225 43.6975C9.88875 43.1861 9.1355 42.2324 9.08712 40.8019C9.03875 39.3231 9.03875 37.8373 9.08712 36.3585C9.1355 34.9626 9.87492 34.0227 11.181 33.5183C12.2591 33.1036 13.3371 32.689 14.3875 32.2191C14.6639 32.0947 14.9196 31.7906 15.044 31.5073C15.7074 29.9939 16.3432 28.4667 16.9444 26.9325C17.055 26.6492 17.0757 26.2553 16.9651 25.972C16.5436 24.8732 16.0598 23.8021 15.5899 22.7171C15.0647 21.487 15.1891 20.3468 16.122 19.3724C17.1932 18.246 18.2712 17.1196 19.4391 16.0968C19.9505 15.6476 20.6899 15.4472 21.2496 15.1639V15.1777ZM50.5157 57.2144C50.8267 57.3043 51.0755 57.3595 51.3035 57.4563C52.6234 58.0091 53.9226 58.6035 55.2563 59.1148C55.5327 59.2185 56.0234 59.1563 56.2376 58.9697C57.1498 58.1543 57.9929 57.2559 58.8774 56.399C59.2575 56.0327 59.3059 55.6872 59.0848 55.1966C58.5181 53.9665 58.0344 52.7019 57.4746 51.4718C57.1775 50.8153 57.2811 50.2625 57.5714 49.6198C58.373 47.8438 59.1262 46.0401 59.8104 44.2226C60.0591 43.5523 60.3978 43.1101 61.0681 42.8544C62.3327 42.3775 63.5766 41.8454 64.8481 41.3755C65.3181 41.2028 65.5323 40.9332 65.5254 40.4357C65.5115 39.2056 65.5115 37.9755 65.5254 36.7455C65.5254 36.2825 65.325 36.0268 64.8827 35.8609C63.5904 35.3772 62.3258 34.8382 61.0404 34.3475C60.4047 34.1056 60.073 33.6772 59.8242 33.0345C59.1262 31.1894 58.373 29.365 57.5644 27.5614C57.288 26.9394 57.1844 26.4073 57.4608 25.7785C58.0205 24.5208 58.5319 23.2354 59.1055 21.9846C59.3197 21.5216 59.2713 21.1968 58.912 20.8444C58.0344 19.9874 57.1636 19.1167 56.3067 18.2391C55.975 17.9005 55.6571 17.8797 55.2356 18.0732C54.0055 18.633 52.7409 19.1167 51.5108 19.6834C50.8267 19.9944 50.26 19.9045 49.5897 19.6005C47.8137 18.7988 46.0101 18.0594 44.1926 17.3684C43.5568 17.1265 43.1076 16.8155 42.8658 16.1728C42.3889 14.9082 41.843 13.6643 41.3869 12.3928C41.1934 11.8468 40.8824 11.6464 40.3365 11.6534C39.1825 11.6672 38.0284 11.6672 36.8743 11.6534C36.3284 11.6464 36.0174 11.8468 35.8239 12.3928C35.3678 13.6643 34.8219 14.9082 34.3382 16.1728C34.0963 16.8155 33.6471 17.1334 33.0114 17.3753C31.1662 18.0801 29.3419 18.8334 27.5451 19.6419C26.9232 19.9253 26.3842 20.0013 25.7622 19.7248C24.5045 19.1582 23.2191 18.6537 21.9683 18.0871C21.5468 17.8936 21.2289 17.9074 20.8903 18.246C20.0472 19.1098 19.2041 19.9598 18.3265 20.7822C17.8773 21.2037 17.898 21.5976 18.133 22.1159C18.6858 23.3252 19.1765 24.5622 19.7224 25.7716C20.0057 26.4004 19.9021 26.9325 19.6257 27.5545C18.8171 29.3512 18.0708 31.1825 17.359 33.0207C17.1241 33.6219 16.8407 34.0711 16.2188 34.3061C14.8851 34.8174 13.5513 35.3357 12.2452 35.9162C11.9895 36.0268 11.7062 36.3999 11.6924 36.6625C11.6371 37.941 11.6302 39.2194 11.6924 40.4979C11.7062 40.7812 12.0103 41.1751 12.2798 41.2995C13.5859 41.88 14.9127 42.3983 16.2464 42.9097C16.8476 43.1377 17.1241 43.5662 17.3452 44.1397C18.0708 45.9987 18.8241 47.8507 19.6395 49.682C19.909 50.2832 19.9988 50.7946 19.7362 51.3958C19.1696 52.6811 18.6444 53.9803 18.0708 55.2657C17.898 55.6527 17.8773 55.9567 18.2021 56.2815C19.1143 57.173 19.985 58.1128 20.9318 58.9766C21.1391 59.1632 21.6366 59.2323 21.9061 59.1287C23.2191 58.6311 24.5045 58.0644 25.7829 57.4909C26.3842 57.2283 26.8955 57.2974 27.4968 57.5669C29.3211 58.3823 31.1732 59.1425 33.0321 59.8612C33.6402 60.0961 34.0687 60.3933 34.3036 61.0152C34.7943 62.3006 35.3402 63.5721 35.817 64.8644C35.9898 65.3274 36.2317 65.5693 36.7361 65.5623C37.9662 65.5485 39.1963 65.5485 40.4263 65.5623C40.9308 65.5623 41.1727 65.3274 41.3454 64.8644C41.8292 63.5721 42.3751 62.3075 42.8658 61.0221C43.1007 60.4002 43.5292 60.103 44.1373 59.8681C46.0031 59.1494 47.8344 58.3547 49.6865 57.5945C49.9836 57.4701 50.2738 57.3457 50.5364 57.2352L50.5157 57.2144Z" fill="white"/>
<path d="M38.602 19.3169C49.258 19.3307 57.8893 28.0173 57.8547 38.6733C57.8133 49.3017 49.1613 57.9122 38.5398 57.8914C27.8976 57.8707 19.2525 49.1773 19.2871 38.5282C19.3216 27.9067 27.9736 19.3031 38.602 19.3169ZM38.5329 55.3207C47.7446 55.3415 55.2702 47.8505 55.2909 38.6387C55.3116 29.4201 47.8276 21.9015 38.6158 21.8807C29.411 21.86 21.8785 29.3648 21.8578 38.5627C21.844 47.7814 29.3281 55.3 38.5329 55.3207Z" fill="white"/>
<path d="M39.8597 29.8351C39.8597 32.3298 39.8459 34.6863 39.8873 37.0428C39.8873 37.2294 40.2052 37.4989 40.4333 37.5749C42.9763 38.4802 44.5381 40.2148 44.9251 42.9099C45.3674 45.992 43.5153 48.9289 40.5231 49.8549C39.9702 50.0277 39.8113 50.2696 39.8528 50.7948C39.8804 51.1127 39.8528 51.4513 39.7906 51.7692C39.6593 52.3911 39.2101 52.7228 38.6089 52.7366C37.9662 52.7504 37.517 52.4118 37.3442 51.7692C37.3304 51.7208 37.3097 51.6655 37.3166 51.624C37.5861 50.3041 36.7638 49.9379 35.7272 49.461C33.502 48.4314 32.3687 46.5379 32.1544 44.0985C32.0784 43.2001 32.5207 42.5851 33.2601 42.4952C34.0756 42.4054 34.6077 42.8753 34.7044 43.8428C34.8634 45.4737 35.6235 46.6484 37.213 47.3326C37.2406 47.1115 37.2751 46.9732 37.2751 46.8281C37.2751 44.672 37.2751 42.5091 37.2821 40.353C37.2821 39.9522 37.1922 39.7517 36.7499 39.6135C33.9097 38.7083 32.113 36.2758 32.1199 33.4424C32.1199 30.616 33.9028 28.2595 36.7914 27.3059C37.1853 27.1746 37.2959 26.9811 37.2821 26.6079C37.2682 26.2348 37.2682 25.8478 37.3373 25.4815C37.4617 24.825 37.9247 24.4795 38.5605 24.4795C39.2032 24.4795 39.832 24.8527 39.7629 25.4746C39.5971 26.9396 40.4747 27.3059 41.5735 27.838C43.7227 28.8815 44.7938 30.7681 44.9804 33.1522C45.0495 34.0437 44.5934 34.6518 43.8401 34.7209C43.0523 34.79 42.5202 34.327 42.4373 33.4148C42.2922 31.777 41.532 30.5953 39.8597 29.8421V29.8351ZM37.2406 29.9526C35.7963 30.3189 34.6837 31.8945 34.7113 33.4977C34.7321 35.101 35.8723 36.6766 37.2406 36.9392V29.9526ZM39.9288 40.2078V47.2773C41.456 46.7176 42.4442 45.2871 42.4304 43.7184C42.4166 42.1704 41.4422 40.7607 39.9288 40.2078Z" fill="white"/>
</svg>
