<svg width="82" height="80" viewBox="0 0 82 80" fill="none" xmlns="http://www.w3.org/2000/svg">
<path d="M81.037 16.8218C80.6667 17.3372 80.1658 17.4824 79.5343 17.4751C77.5888 17.4461 75.6433 17.4606 73.647 17.4606V77.1469C74.852 77.1469 76.0353 77.1033 77.204 77.1687C77.5961 77.1904 78.1042 77.401 78.3365 77.6986C78.8374 78.3302 78.3002 79.1722 77.4 79.194C75.7885 79.2303 74.1842 79.2303 72.5726 79.223C59.3896 79.223 46.1994 79.2085 33.0165 79.2013C32.7769 79.2013 32.4793 79.2811 32.3196 79.165C31.9856 78.9327 31.5864 78.6423 31.4702 78.2939C31.3033 77.8002 31.6227 77.3647 32.1526 77.2267C32.4502 77.1469 32.7769 77.1469 33.0891 77.1469C40.2105 77.1469 47.3319 77.1469 54.4533 77.1469C54.7654 77.1469 55.0703 77.1469 55.4696 77.1469V76.0507C55.4696 65.3722 55.4696 54.6865 55.4696 44.008C55.4696 43.6668 55.3825 43.253 55.5422 42.999C55.7454 42.665 56.1157 42.2876 56.4714 42.215C56.965 42.1133 57.3788 42.4545 57.4659 43.0062C57.5167 43.3402 57.5095 43.6886 57.5095 44.0298C57.5095 54.7083 57.5095 65.394 57.5095 76.0725V77.1106H71.5272C71.5272 76.7476 71.5272 76.4137 71.5272 76.0798C71.5272 56.4287 71.5272 36.785 71.5272 17.134C71.5272 15.6385 71.7595 15.4062 73.2695 15.4062C74.6052 15.4062 75.9409 15.4062 77.1968 15.4062C72.9646 11.174 68.7324 6.94185 64.5583 2.76773C60.435 6.89103 56.1955 11.1305 51.9198 15.4062C52.8853 15.4062 53.9233 15.4062 54.9542 15.4062C56.2536 15.4062 56.5149 15.6676 56.5149 16.9888C56.5149 22.0558 56.5149 27.1155 56.5149 32.1826C56.5149 33.6126 56.3117 33.8086 54.8453 33.8086C49.7057 33.8086 44.5588 33.8086 39.4192 33.8086C39.107 33.8086 38.7949 33.8086 38.3666 33.8086C38.3666 34.1861 38.3666 34.491 38.3666 34.8032C38.3666 38.7595 38.3666 42.7159 38.3666 46.6722C38.3666 48.1241 38.1488 48.3418 36.7332 48.3418C31.5646 48.3418 26.3959 48.3418 21.2273 48.3418C20.9369 48.3418 20.6538 48.3418 20.2255 48.3418C20.2255 48.683 20.2255 48.9879 20.2255 49.2855C20.2255 53.2927 20.2255 57.2999 20.2255 61.3143C20.2255 62.5919 19.9279 62.8823 18.6357 62.8823C13.438 62.8823 8.24761 62.8823 3.04992 62.8823C2.75955 62.8823 2.46918 62.8823 2.06265 62.8823C2.06265 63.1872 2.06265 63.463 2.06265 63.7389C2.06265 68.3558 2.06265 72.9728 2.06265 77.5824C2.06265 77.8438 2.09168 78.1196 2.03361 78.3737C1.91746 78.8964 1.58353 79.2013 1.02456 79.2013C0.465594 79.2013 0.146187 78.8819 0.0300371 78.3592C-0.0207782 78.1341 0.00826 77.8873 0.00826 77.6478C0.00826 72.559 0.00826 67.4702 0.00826 62.3814C0.00826 61.1037 0.291376 60.8279 1.59806 60.8279C6.79574 60.8279 11.9862 60.8279 17.1839 60.8279H18.1784C18.1784 60.5157 18.1784 60.2399 18.1784 59.9568C18.1784 55.8988 18.1784 51.8336 18.1784 47.7756C18.1784 46.5851 18.476 46.2874 19.6738 46.2874C24.8715 46.2874 30.0619 46.2874 35.2596 46.2874C35.5717 46.2874 35.8839 46.2874 36.3195 46.2874C36.3195 45.9317 36.3195 45.6268 36.3195 45.322C36.3195 41.3366 36.3195 37.3585 36.3195 33.3731C36.3195 32.0156 36.5735 31.7615 37.9455 31.7615C43.1142 31.7615 48.2828 31.7615 53.4515 31.7615C53.7564 31.7615 54.0685 31.7615 54.417 31.7615V17.4679C52.8054 17.4679 51.2301 17.4679 49.6549 17.4679C49.0814 17.4679 48.5297 17.4679 48.2465 16.8436C47.9634 16.2048 48.3627 15.8055 48.762 15.399C53.6838 10.4771 58.6056 5.55532 63.5347 0.633485C64.3695 -0.201338 64.7833 -0.208597 65.5891 0.597189C70.5327 5.53354 75.4763 10.4771 80.4127 15.4208C80.6159 15.624 80.8119 15.8273 81.0079 16.0305V16.8218H81.037Z" fill="white"/>
</svg>
